<svg width="942" height="316" viewBox="0 0 942 316" fill="none" xmlns="http://www.w3.org/2000/svg">
<path d="M201.66 77.1455H200.515L180.244 21.2148L160.372 77.1455H159.227L135.37 11.6523C134.407 8.99609 133.378 6.9541 132.282 5.52637C131.187 4.09863 129.593 3.38477 127.501 3.38477V2.6377H144.833V3.38477C143.14 3.38477 142.293 3.99902 142.293 5.22754C142.293 5.95801 142.559 7.07031 143.09 8.56445L162.514 61.9053L178.501 16.832L176.957 12.5488C175.596 8.79688 174.284 6.33984 173.022 5.17773C171.794 3.98242 170.399 3.38477 168.839 3.38477V2.6377H185.972V3.38477C184.312 3.38477 183.481 4.09863 183.481 5.52637C183.481 5.95801 183.83 7.10352 184.527 8.96289L203.901 62.1045L223.275 8.0166C223.309 7.88379 223.342 7.80078 223.375 7.76758L224.122 5.22754C224.122 3.99902 223.259 3.38477 221.532 3.38477V2.6377H232.24V3.38477C229.318 3.41797 227.011 5.79199 225.317 10.5068L201.66 77.1455ZM236.474 3.48438V2.6377H282.593V12.748H281.846C280.85 8.99609 280.003 6.78809 279.306 6.12402C278.642 5.45996 276.981 5.12793 274.325 5.12793H250.12V38.0488H272.582C274.807 38.0488 276.218 37.8496 276.815 37.4512C277.413 37.0195 277.729 36.4053 277.762 35.6084H278.509V42.5312H277.762C277.596 41.5684 277.197 40.9209 276.566 40.5889C275.969 40.2568 274.84 40.0908 273.18 40.0908H250.12V62.752C250.12 66.1719 250.436 68.6455 251.066 70.1729C251.697 71.667 252.693 72.6133 254.055 73.0117C255.449 73.377 257.541 73.5596 260.33 73.5596H273.279C277.396 73.5596 280.02 73.4268 281.148 73.1611C282.311 72.8623 283.29 72.2979 284.087 71.4678C284.884 70.6045 285.498 68.7451 285.93 65.8896H286.627V76H236.474V75.3027C238.167 75.2031 239.445 74.8877 240.309 74.3564C241.205 73.792 241.653 72.3643 241.653 70.0732V10.8057C241.653 8.11621 241.421 6.22363 240.956 5.12793C240.491 4.03223 238.997 3.48438 236.474 3.48438ZM289.018 76V75.3027C291.309 75.3027 292.786 74.8711 293.45 74.0078C294.147 73.1445 294.496 71.667 294.496 69.5752V9.51074C294.496 7.38574 294.23 5.8584 293.699 4.92871C293.168 3.96582 291.574 3.45117 288.918 3.38477V2.6377H308.591V3.38477C306.765 3.38477 305.486 3.61719 304.756 4.08203C304.025 4.54687 303.544 5.09473 303.312 5.72559C303.079 6.35645 302.963 7.78418 302.963 10.0088V61.5068C302.963 65.9229 304.025 69.0439 306.15 70.8701C308.275 72.6631 311.911 73.5596 317.058 73.5596H326.022C330.339 73.5596 333.493 72.4971 335.485 70.3721C337.511 68.2471 338.64 64.2461 338.872 58.3691H339.569V76H289.018ZM407.603 6.32324L410.342 14.0928H409.645C402.539 7.02051 394.172 3.48438 384.543 3.48438C374.549 3.48438 366.464 6.45605 360.288 12.3994C354.146 18.3428 351.074 25.5312 351.074 33.9648C351.074 39.1777 352.436 45.1709 355.158 51.9443C357.914 58.7178 362.247 64.2959 368.157 68.6787C374.067 73.0283 381.223 75.2031 389.623 75.2031C395.135 75.2031 400.53 74.3232 405.81 72.5635C411.122 70.7705 415.073 68.3799 417.663 65.3916L418.311 65.5908L413.181 73.46C404.88 75.2529 399.484 76.3154 396.994 76.6475C394.537 76.9795 391.233 77.1455 387.083 77.1455C371.71 77.1455 360.703 73.5928 354.062 66.4873C347.455 59.3486 344.151 50.8154 344.151 40.8877C344.151 34.1807 345.845 27.7393 349.231 21.5635C352.651 15.3545 357.565 10.4736 363.974 6.9209C370.382 3.33496 377.703 1.54199 385.938 1.54199C390.055 1.54199 393.607 1.92383 396.596 2.6875C399.617 3.41797 402.124 4.18164 404.116 4.97852L407.403 6.22363C407.503 6.25684 407.569 6.29004 407.603 6.32324ZM462.238 1.54199C472.531 1.54199 480.948 4.67969 487.489 10.9551C494.03 17.1973 497.301 25 497.301 34.3633C497.301 46.416 493.516 56.5596 485.945 64.7939C478.375 73.0283 468.331 77.1455 455.813 77.1455C445.653 77.1455 437.336 73.8252 430.861 67.1846C424.387 60.5439 421.149 52.5752 421.149 43.2783C421.149 37.0029 422.71 30.5615 425.831 23.9541C428.952 17.3467 433.65 11.9678 439.926 7.81738C446.201 3.63379 453.639 1.54199 462.238 1.54199ZM461.939 73.2607C466.986 73.2607 471.967 71.916 476.881 69.2266C481.795 66.5039 485.663 62.7686 488.485 58.0205C491.308 53.2725 492.719 48.3916 492.719 43.3779C492.719 36.2725 490.81 29.8145 486.991 24.0039C483.206 18.1934 478.275 13.6445 472.199 10.3574C466.156 7.07031 460.562 5.42676 455.415 5.42676C448.144 5.42676 441.536 8.16602 435.593 13.6445C429.683 19.123 426.728 25.9297 426.728 34.0645C426.728 44.457 430.347 53.5879 437.585 61.457C444.823 69.3262 452.941 73.2607 461.939 73.2607ZM571.809 2.6377H583.363V3.38477C579.479 3.58398 577.536 5.62598 577.536 9.51074C577.536 10.3408 577.636 11.4863 577.835 12.9473L585.505 68.5293C585.97 71.3184 586.484 73.1113 587.049 73.9082C587.646 74.6719 588.858 75.1367 590.685 75.3027V76H574.199V75.3027C576.357 75.3691 577.437 74.3066 577.437 72.1152C577.437 71.6172 577.337 70.6377 577.138 69.1768L569.667 15.2881L543.37 76H542.872L516.426 15.3877L509.005 69.5752C508.872 70.4053 508.806 71.3516 508.806 72.4141C508.806 74.3398 509.918 75.3027 512.143 75.3027V76H500.937V75.3027C502.63 75.3027 503.709 75.0869 504.174 74.6553C504.672 74.2236 505.054 73.5596 505.319 72.6631C505.585 71.7334 505.784 70.7041 505.917 69.5752L514.284 10.3076C512.923 7.02051 511.562 5.04492 510.2 4.38086C508.839 3.7168 507.527 3.38477 506.266 3.38477V2.6377H520.111L545.91 62.6523L571.809 2.6377ZM594.968 3.48438V2.6377H641.087V12.748H640.34C639.344 8.99609 638.497 6.78809 637.8 6.12402C637.136 5.45996 635.476 5.12793 632.819 5.12793H608.614V38.0488H631.076C633.301 38.0488 634.712 37.8496 635.31 37.4512C635.907 37.0195 636.223 36.4053 636.256 35.6084H637.003V42.5312H636.256C636.09 41.5684 635.691 40.9209 635.061 40.5889C634.463 40.2568 633.334 40.0908 631.674 40.0908H608.614V62.752C608.614 66.1719 608.93 68.6455 609.561 70.1729C610.191 71.667 611.188 72.6133 612.549 73.0117C613.943 73.377 616.035 73.5596 618.824 73.5596H631.773C635.891 73.5596 638.514 73.4268 639.643 73.1611C640.805 72.8623 641.784 72.2979 642.581 71.4678C643.378 70.6045 643.992 68.7451 644.424 65.8896H645.121V76H594.968V75.3027C596.661 75.2031 597.939 74.8877 598.803 74.3564C599.699 73.792 600.147 72.3643 600.147 70.0732V10.8057C600.147 8.11621 599.915 6.22363 599.45 5.12793C598.985 4.03223 597.491 3.48438 594.968 3.48438ZM737.658 0.0976562L734.172 8.96289H733.475C733.607 8.43164 733.674 7.71777 733.674 6.82129C733.674 6.05762 733.392 5.57617 732.827 5.37695C732.296 5.14453 731.433 5.02832 730.237 5.02832H711.062V67.832C711.062 70.4219 711.262 72.1982 711.66 73.1611C712.092 74.0908 712.656 74.6885 713.354 74.9541C714.084 75.1865 715.246 75.3027 716.84 75.3027V76H696.968V75.3027C699.458 75.1367 701.019 74.6553 701.649 73.8584C702.28 73.0615 702.596 71.4014 702.596 68.8779V5.02832H684.218C682.358 5.02832 681.146 5.14453 680.582 5.37695C680.018 5.57617 679.735 6.10742 679.735 6.9707C679.735 7.40234 679.868 8.06641 680.134 8.96289H679.437L675.95 0.0976562H676.647C677.245 1.29297 677.826 2.02344 678.391 2.28906C678.988 2.52148 680.25 2.6377 682.176 2.6377H730.935C732.86 2.6377 734.238 2.52148 735.068 2.28906C735.932 2.02344 736.562 1.29297 736.961 0.0976562H737.658ZM778.199 1.54199C788.492 1.54199 796.909 4.67969 803.45 10.9551C809.991 17.1973 813.262 25 813.262 34.3633C813.262 46.416 809.477 56.5596 801.906 64.7939C794.336 73.0283 784.292 77.1455 771.774 77.1455C761.614 77.1455 753.297 73.8252 746.822 67.1846C740.348 60.5439 737.11 52.5752 737.11 43.2783C737.11 37.0029 738.671 30.5615 741.792 23.9541C744.913 17.3467 749.611 11.9678 755.887 7.81738C762.162 3.63379 769.6 1.54199 778.199 1.54199ZM777.9 73.2607C782.947 73.2607 787.928 71.916 792.842 69.2266C797.756 66.5039 801.624 62.7686 804.446 58.0205C807.269 53.2725 808.68 48.3916 808.68 43.3779C808.68 36.2725 806.771 29.8145 802.952 24.0039C799.167 18.1934 794.236 13.6445 788.16 10.3574C782.117 7.07031 776.522 5.42676 771.376 5.42676C764.104 5.42676 757.497 8.16602 751.554 13.6445C745.644 19.123 742.688 25.9297 742.688 34.0645C742.688 44.457 746.308 53.5879 753.546 61.457C760.784 69.3262 768.902 73.2607 777.9 73.2607ZM62.207 119.098L58.7207 127.963H58.0234C58.1563 127.432 58.2227 126.718 58.2227 125.821C58.2227 125.058 57.9404 124.576 57.376 124.377C56.8447 124.145 55.9814 124.028 54.7861 124.028H35.6113V186.832C35.6113 189.422 35.8105 191.198 36.209 192.161C36.6406 193.091 37.2051 193.688 37.9023 193.954C38.6328 194.187 39.7949 194.303 41.3887 194.303V195H21.5166V194.303C24.0068 194.137 25.5674 193.655 26.1982 192.858C26.8291 192.062 27.1445 190.401 27.1445 187.878V124.028H8.7666C6.90723 124.028 5.69531 124.145 5.13086 124.377C4.56641 124.576 4.28418 125.107 4.28418 125.971C4.28418 126.402 4.41699 127.066 4.68262 127.963H3.98535L0.499023 119.098H1.19629C1.79395 120.293 2.375 121.023 2.93945 121.289C3.53711 121.521 4.79883 121.638 6.72461 121.638H55.4834C57.4092 121.638 58.7871 121.521 59.6172 121.289C60.4805 121.023 61.1113 120.293 61.5098 119.098H62.207ZM96.4229 161.232H75.0068L63.9004 188.974C63.1367 190.966 62.7549 192.194 62.7549 192.659C62.7549 193.755 63.5684 194.303 65.1953 194.303V195H54.2881V194.303C55.749 194.303 56.9775 193.954 57.9736 193.257C58.9697 192.526 60.0654 190.667 61.2607 187.679L87.8564 120.542H89.1016L115.299 185.388C115.299 185.72 115.963 187.297 117.291 190.119C118.652 192.908 120.711 194.303 123.467 194.303V195H106.334V194.303C107.895 194.303 108.675 193.688 108.675 192.46C108.675 191.63 108.293 190.302 107.529 188.476C107.396 188.343 107.28 188.127 107.181 187.828C107.114 187.496 107.064 187.33 107.031 187.33L96.4229 161.232ZM75.7041 159.19H95.5264L85.6152 134.188L75.7041 159.19ZM176.758 119.098L173.271 127.963H172.574C172.707 127.432 172.773 126.718 172.773 125.821C172.773 125.058 172.491 124.576 171.927 124.377C171.396 124.145 170.532 124.028 169.337 124.028H150.162V186.832C150.162 189.422 150.361 191.198 150.76 192.161C151.191 193.091 151.756 193.688 152.453 193.954C153.184 194.187 154.346 194.303 155.939 194.303V195H136.067V194.303C138.558 194.137 140.118 193.655 140.749 192.858C141.38 192.062 141.695 190.401 141.695 187.878V124.028H123.317C121.458 124.028 120.246 124.145 119.682 124.377C119.117 124.576 118.835 125.107 118.835 125.971C118.835 126.402 118.968 127.066 119.233 127.963H118.536L115.05 119.098H115.747C116.345 120.293 116.926 121.023 117.49 121.289C118.088 121.521 119.35 121.638 121.275 121.638H170.034C171.96 121.638 173.338 121.521 174.168 121.289C175.031 121.023 175.662 120.293 176.061 119.098H176.758ZM199.768 121.638V122.385C198.805 122.285 197.726 122.435 196.53 122.833C195.368 123.231 194.671 123.812 194.438 124.576C194.239 125.34 194.14 127.149 194.14 130.005V186.334C194.14 189.389 194.256 191.265 194.488 191.962C194.754 192.626 195.235 193.19 195.933 193.655C196.663 194.087 197.941 194.303 199.768 194.303V195H180.194V194.303C182.651 194.303 184.179 193.838 184.776 192.908C185.374 191.945 185.673 189.787 185.673 186.434V130.652C185.673 127.166 185.341 124.892 184.677 123.829C184.013 122.733 182.519 122.252 180.194 122.385V121.638H199.768ZM245.837 161.232H224.421L213.314 188.974C212.551 190.966 212.169 192.194 212.169 192.659C212.169 193.755 212.982 194.303 214.609 194.303V195H203.702V194.303C205.163 194.303 206.392 193.954 207.388 193.257C208.384 192.526 209.479 190.667 210.675 187.679L237.271 120.542H238.516L264.713 185.388C264.713 185.72 265.377 187.297 266.705 190.119C268.066 192.908 270.125 194.303 272.881 194.303V195H255.748V194.303C257.309 194.303 258.089 193.688 258.089 192.46C258.089 191.63 257.707 190.302 256.943 188.476C256.811 188.343 256.694 188.127 256.595 187.828C256.528 187.496 256.479 187.33 256.445 187.33L245.837 161.232ZM225.118 159.19H244.94L235.029 134.188L225.118 159.19ZM337.577 121.638H351.771V122.385C349.613 122.451 348.119 122.916 347.289 123.779C346.459 124.609 346.044 126.386 346.044 129.108V195.896L287.523 133.591V187.878C287.523 189.604 287.656 190.883 287.922 191.713C288.188 192.543 288.569 193.107 289.067 193.406C289.565 193.705 290.811 194.004 292.803 194.303V195H278.708V194.303C281.231 194.303 282.792 193.854 283.39 192.958C284.021 192.062 284.336 189.92 284.336 186.533V136.878C284.336 132.528 283.722 128.976 282.493 126.22C281.298 123.464 278.509 122.186 274.126 122.385V121.638H287.922L342.906 180.208V128.411C342.906 125.622 342.408 123.929 341.412 123.331C340.416 122.7 339.138 122.385 337.577 122.385V121.638ZM395.251 161.232H373.835L362.729 188.974C361.965 190.966 361.583 192.194 361.583 192.659C361.583 193.755 362.396 194.303 364.023 194.303V195H353.116V194.303C354.577 194.303 355.806 193.954 356.802 193.257C357.798 192.526 358.894 190.667 360.089 187.679L386.685 120.542H387.93L414.127 185.388C414.127 185.72 414.791 187.297 416.119 190.119C417.48 192.908 419.539 194.303 422.295 194.303V195H405.162V194.303C406.723 194.303 407.503 193.688 407.503 192.46C407.503 191.63 407.121 190.302 406.357 188.476C406.225 188.343 406.108 188.127 406.009 187.828C405.942 187.496 405.893 187.33 405.859 187.33L395.251 161.232ZM374.532 159.19H394.354L384.443 134.188L374.532 159.19ZM500.887 125.323L504.024 133.69H503.028C500.306 130.37 497.135 127.697 493.516 125.672C489.93 123.613 486.427 122.584 483.007 122.584C479.886 122.584 477.545 123.48 475.984 125.273C474.424 127.033 473.644 128.992 473.644 131.15C473.644 135.168 476.914 140.397 483.455 146.839L515.978 178.963C518.401 175.676 520.078 171.476 521.008 166.362C521.938 161.249 522.402 157.298 522.402 154.509C522.402 152.45 521.921 151.155 520.958 150.624C520.028 150.06 518.501 149.728 516.376 149.628L515.679 149.528L514.035 149.628V148.781L529.624 148.682V149.628C527.964 149.429 526.835 149.877 526.237 150.973C525.673 152.068 525.108 154.509 524.544 158.294C523.149 168.255 520.775 175.626 517.422 180.407L524.942 187.878C528.562 191.464 532.23 193.257 535.949 193.257C538.639 193.257 541.428 192.41 544.316 190.717L544.814 191.414C540.365 194.568 535.551 196.146 530.371 196.146C524.926 196.146 519.929 193.888 515.38 189.372C515.38 189.239 515.197 189.007 514.832 188.675L512.392 186.334C505.452 192.875 496.521 196.146 485.597 196.146C475.071 196.146 467.235 193.456 462.089 188.077C456.942 182.698 454.369 176.771 454.369 170.297C454.369 164.686 456.096 159.821 459.549 155.704C463.035 151.554 467.8 148.914 473.843 147.785C472.116 145.328 470.805 143.104 469.908 141.111C469.012 139.086 468.563 136.928 468.563 134.637C468.563 131.018 469.858 127.764 472.448 124.875C475.038 121.986 479.139 120.542 484.75 120.542C488.004 120.542 490.859 120.974 493.316 121.837C495.773 122.7 498.297 123.862 500.887 125.323ZM510.997 184.989L483.007 157.896C482.808 157.729 481.629 156.518 479.471 154.26C477.346 151.969 475.951 150.358 475.287 149.429C465.293 151.753 460.296 156.75 460.296 164.42C460.296 171.293 463.517 177.668 469.958 183.545C476.433 189.422 483.787 192.36 492.021 192.36C496.371 192.36 499.741 191.846 502.132 190.816C504.522 189.754 507.229 187.994 510.25 185.537C510.383 185.404 510.532 185.288 510.698 185.188C510.864 185.089 510.964 185.022 510.997 184.989ZM578.134 121.638H597.807V122.385C595.283 122.385 593.706 122.899 593.075 123.929C592.478 124.958 592.179 126.618 592.179 128.909V191.314C592.179 197.258 591.979 201.69 591.581 204.612C591.183 207.534 590.286 210.091 588.892 212.282C587.497 214.507 585.654 216.283 583.363 217.611C581.072 218.939 578.399 219.604 575.345 219.604C572.423 219.604 569.435 219.089 566.38 218.06L566.479 217.213C567.376 217.512 568.704 217.661 570.464 217.661C574.78 217.661 578.067 216.084 580.325 212.93C582.583 209.775 583.712 204.38 583.712 196.743V129.208C583.712 126.187 583.33 124.294 582.566 123.53C581.836 122.767 580.358 122.385 578.134 122.385V121.638ZM645.619 120.542C655.912 120.542 664.329 123.68 670.87 129.955C677.411 136.197 680.682 144 680.682 153.363C680.682 165.416 676.896 175.56 669.326 183.794C661.756 192.028 651.712 196.146 639.194 196.146C629.034 196.146 620.717 192.825 614.242 186.185C607.768 179.544 604.53 171.575 604.53 162.278C604.53 156.003 606.091 149.562 609.212 142.954C612.333 136.347 617.031 130.968 623.307 126.817C629.582 122.634 637.02 120.542 645.619 120.542ZM645.32 192.261C650.367 192.261 655.348 190.916 660.262 188.227C665.176 185.504 669.044 181.769 671.866 177.021C674.688 172.272 676.1 167.392 676.1 162.378C676.1 155.272 674.19 148.814 670.372 143.004C666.587 137.193 661.656 132.645 655.58 129.357C649.537 126.07 643.942 124.427 638.796 124.427C631.524 124.427 624.917 127.166 618.974 132.645C613.063 138.123 610.108 144.93 610.108 153.064C610.108 163.457 613.728 172.588 620.966 180.457C628.204 188.326 636.322 192.261 645.32 192.261ZM688.103 122.385V121.638H708.921C714.2 121.638 718.019 121.754 720.376 121.986C722.733 122.219 725.141 122.999 727.598 124.327C730.088 125.622 731.964 127.398 733.226 129.656C734.487 131.881 735.118 134.62 735.118 137.874C735.118 141.593 733.989 145.146 731.731 148.532C729.507 151.886 726.353 154.725 722.269 157.049L727.448 165.018C728.577 167.01 731.565 171.376 736.413 178.116C741.294 184.856 745.062 188.974 747.719 190.468C750.375 191.929 752.948 192.659 755.438 192.659C757.896 192.659 760.718 191.713 763.905 189.82L764.204 190.816C760.22 194.07 755.04 195.697 748.665 195.697C744.415 195.697 740.763 194.452 737.708 191.962C734.653 189.438 729.341 182.532 721.771 171.243C721.704 171.177 721.671 171.11 721.671 171.044L714.3 159.688L707.775 159.888H701.849V187.978C701.849 190.235 702.147 191.862 702.745 192.858C703.343 193.821 704.787 194.303 707.078 194.303V195H688.103V194.303C690.46 194.203 691.921 193.705 692.485 192.809C693.083 191.912 693.382 190.086 693.382 187.33V129.009C693.382 127.116 693.133 125.556 692.635 124.327C692.137 123.065 690.626 122.418 688.103 122.385ZM701.849 123.58V157.995H709.519C715.562 157.995 720.044 156.567 722.966 153.712C725.888 150.856 727.349 147.104 727.349 142.456C727.349 137.94 725.904 133.674 723.016 129.656C720.16 125.605 715.113 123.58 707.875 123.58H701.849ZM768.786 122.385V121.638H802.454C811.021 121.638 817.777 122.318 822.725 123.68C827.705 125.008 832.038 127.116 835.724 130.005C839.409 132.894 842.331 136.596 844.489 141.111C846.647 145.594 847.727 150.607 847.727 156.152C847.727 161.498 846.598 166.761 844.34 171.94C842.115 177.087 839.077 181.536 835.226 185.288C831.374 189.007 827.307 191.563 823.023 192.958C818.773 194.319 812.183 195 803.251 195H768.786V194.303H769.683C771.476 194.303 772.654 193.589 773.219 192.161C773.783 190.7 774.065 188.077 774.065 184.292V130.852C774.065 126.867 773.717 124.46 773.02 123.63C772.355 122.8 770.944 122.385 768.786 122.385ZM793.788 123.182H782.532V180.108C782.532 183.694 783.13 186.367 784.325 188.127C785.554 189.854 787.629 191.115 790.551 191.912C793.473 192.676 797.407 193.058 802.354 193.058C816.101 193.058 825.746 189.538 831.291 182.499C836.869 175.427 839.658 167.724 839.658 159.39C839.658 149.595 835.84 141.111 828.203 133.939C820.6 126.768 809.128 123.182 793.788 123.182ZM874.123 121.638V122.385C873.16 122.285 872.081 122.435 870.886 122.833C869.724 123.231 869.026 123.812 868.794 124.576C868.595 125.34 868.495 127.149 868.495 130.005V186.334C868.495 189.389 868.611 191.265 868.844 191.962C869.109 192.626 869.591 193.19 870.288 193.655C871.019 194.087 872.297 194.303 874.123 194.303V195H854.55V194.303C857.007 194.303 858.534 193.838 859.132 192.908C859.729 191.945 860.028 189.787 860.028 186.434V130.652C860.028 127.166 859.696 124.892 859.032 123.829C858.368 122.733 856.874 122.252 854.55 122.385V121.638H874.123ZM879.602 147.984L879.303 147.586C882.955 144.896 885.329 142.207 886.425 139.518C887.521 136.795 888.068 134.487 888.068 132.595C888.068 131.3 887.687 130.652 886.923 130.652C886.79 130.652 886.491 130.719 886.026 130.852C885.562 130.984 885.146 131.051 884.781 131.051C883.32 131.051 882.059 130.553 880.996 129.557C879.934 128.561 879.402 127.365 879.402 125.971C879.402 124.543 879.9 123.281 880.896 122.186C881.926 121.09 883.304 120.542 885.03 120.542C887.089 120.542 888.865 121.422 890.359 123.182C891.887 124.941 892.65 127.398 892.65 130.553C892.65 134.072 891.688 137.227 889.762 140.016C887.836 142.771 884.449 145.428 879.602 147.984ZM933.739 122.584L937.226 131.748L936.628 131.848C936.628 131.814 935.698 130.835 933.839 128.909C932.013 126.983 929.904 125.506 927.514 124.477C925.156 123.414 922.483 122.883 919.495 122.883C914.481 122.883 910.497 124.327 907.542 127.216C904.62 130.071 903.159 133.524 903.159 137.575C903.159 140.265 903.84 142.622 905.201 144.647C906.596 146.64 909.484 148.499 913.867 150.226C921.404 152.749 926.551 154.658 929.307 155.953C932.096 157.215 934.769 159.373 937.325 162.428C939.915 165.482 941.21 169.4 941.21 174.182C941.21 176.174 940.978 178.083 940.513 179.909C940.048 181.702 939.301 183.445 938.271 185.139C937.242 186.799 935.997 188.326 934.536 189.721C933.108 191.082 931.647 192.128 930.153 192.858C928.659 193.556 926.302 194.087 923.081 194.452C919.86 194.817 917.735 195 916.706 195H897.133V173.684H897.88C897.946 180.756 899.606 185.687 902.86 188.476C906.114 191.265 911.178 192.659 918.051 192.659C924.293 192.659 929.024 191.182 932.245 188.227C935.499 185.271 937.126 181.719 937.126 177.568C937.126 175.045 936.562 172.903 935.433 171.144C934.304 169.351 932.727 167.79 930.701 166.462C928.676 165.101 924.841 163.457 919.196 161.531C913.585 159.572 909.634 157.862 907.343 156.401C905.085 154.907 903.192 152.683 901.665 149.728C900.138 146.739 899.374 143.701 899.374 140.613C899.374 134.936 901.316 130.171 905.201 126.319C909.119 122.468 914.249 120.542 920.591 120.542C923.048 120.542 925.704 120.824 928.56 121.389C931.415 121.953 933.009 122.318 933.341 122.484C933.474 122.551 933.606 122.584 933.739 122.584ZM312.077 241.385V240.638H331.152C336.73 240.638 340.682 240.87 343.006 241.335C345.33 241.8 347.555 242.696 349.68 244.024C351.805 245.319 353.614 247.212 355.108 249.702C356.603 252.159 357.35 254.965 357.35 258.119C357.35 264.328 354.295 269.226 348.186 272.812C353.465 273.708 357.449 275.899 360.139 279.386C362.828 282.839 364.173 287.039 364.173 291.986C364.173 296.602 363.011 300.802 360.687 304.587C358.396 308.372 355.756 310.896 352.768 312.157C349.812 313.386 345.662 314 340.316 314H311.978V313.303C314.235 313.303 315.68 312.854 316.311 311.958C316.941 311.028 317.257 308.688 317.257 304.936V249.652C317.257 246.996 317.174 245.187 317.008 244.224C316.875 243.261 316.394 242.547 315.563 242.082C314.733 241.617 313.571 241.385 312.077 241.385ZM325.724 242.182V274.405H334.639C340.682 274.405 344.683 272.679 346.642 269.226C348.634 265.772 349.63 262.336 349.63 258.916C349.63 255.23 348.866 252.159 347.339 249.702C345.812 247.212 343.57 245.336 340.615 244.074C337.693 242.812 333.377 242.182 327.666 242.182H325.724ZM331.451 275.949H325.724V299.208C325.724 302.429 325.84 304.521 326.072 305.483C326.338 306.446 326.902 307.459 327.766 308.521C328.662 309.584 330.09 310.447 332.049 311.111C334.008 311.742 336.83 312.058 340.516 312.058C346.227 312.058 350.261 310.746 352.618 308.123C354.976 305.467 356.154 301.549 356.154 296.369C356.154 290.99 355.108 286.607 353.017 283.221C350.925 279.834 348.551 277.775 345.895 277.045C343.271 276.314 338.457 275.949 331.451 275.949ZM390.42 240.638V241.385C389.457 241.285 388.378 241.435 387.183 241.833C386.021 242.231 385.323 242.812 385.091 243.576C384.892 244.34 384.792 246.149 384.792 249.005V305.334C384.792 308.389 384.908 310.265 385.141 310.962C385.406 311.626 385.888 312.19 386.585 312.655C387.315 313.087 388.594 313.303 390.42 313.303V314H370.847V313.303C373.304 313.303 374.831 312.838 375.429 311.908C376.026 310.945 376.325 308.787 376.325 305.434V249.652C376.325 246.166 375.993 243.892 375.329 242.829C374.665 241.733 373.171 241.252 370.847 241.385V240.638H390.42ZM458.005 240.638H472.199V241.385C470.041 241.451 468.547 241.916 467.717 242.779C466.887 243.609 466.472 245.386 466.472 248.108V314.896L407.951 252.591V306.878C407.951 308.604 408.084 309.883 408.35 310.713C408.615 311.543 408.997 312.107 409.495 312.406C409.993 312.705 411.238 313.004 413.23 313.303V314H399.136V313.303C401.659 313.303 403.22 312.854 403.817 311.958C404.448 311.062 404.764 308.92 404.764 305.533V255.878C404.764 251.528 404.149 247.976 402.921 245.22C401.726 242.464 398.937 241.186 394.554 241.385V240.638H408.35L463.334 299.208V247.411C463.334 244.622 462.836 242.929 461.84 242.331C460.844 241.7 459.565 241.385 458.005 241.385V240.638ZM551.438 313.303V314H521.854C516.177 314 511.196 313.386 506.913 312.157C502.663 310.929 498.313 308.604 493.864 305.185C489.448 301.731 485.862 297.448 483.106 292.335C480.384 287.222 479.022 281.992 479.022 276.646C479.022 270.803 480.732 264.976 484.152 259.165C487.605 253.354 492.503 248.64 498.845 245.021C505.187 241.368 512.375 239.542 520.41 239.542C527.615 239.542 535.235 241.136 543.271 244.323L546.309 252.79H545.611C543.055 249.536 539.552 246.847 535.103 244.722C530.687 242.563 525.756 241.484 520.311 241.484C510.848 241.484 503.095 245.054 497.052 252.192C491.009 259.298 487.987 268.13 487.987 278.688C487.987 283.071 488.485 286.989 489.481 290.442C490.478 293.862 492.337 297.249 495.06 300.603C497.815 303.923 500.754 306.38 503.875 307.974C507.029 309.534 510.549 310.63 514.434 311.261C518.318 311.858 521.406 312.124 523.697 312.058L527.632 311.958C532.081 311.792 534.854 311.377 535.949 310.713C537.078 310.049 537.643 308.355 537.643 305.633V294.526C537.643 292.368 537.194 290.924 536.298 290.193C535.401 289.43 534.123 289.098 532.463 289.197V288.5H551.438V289.197C549.313 289.197 547.886 289.612 547.155 290.442C546.458 291.272 546.109 292.866 546.109 295.224V306.778C546.109 309.103 546.408 310.779 547.006 311.809C547.637 312.805 548.766 313.303 550.393 313.303H551.438ZM597.607 239.542C607.9 239.542 616.317 242.68 622.858 248.955C629.399 255.197 632.67 263 632.67 272.363C632.67 284.416 628.885 294.56 621.314 302.794C613.744 311.028 603.7 315.146 591.183 315.146C581.022 315.146 572.705 311.825 566.23 305.185C559.756 298.544 556.519 290.575 556.519 281.278C556.519 275.003 558.079 268.562 561.2 261.954C564.321 255.347 569.02 249.968 575.295 245.817C581.57 241.634 589.008 239.542 597.607 239.542ZM597.309 311.261C602.355 311.261 607.336 309.916 612.25 307.227C617.164 304.504 621.032 300.769 623.854 296.021C626.677 291.272 628.088 286.392 628.088 281.378C628.088 274.272 626.179 267.814 622.36 262.004C618.575 256.193 613.645 251.645 607.568 248.357C601.525 245.07 595.931 243.427 590.784 243.427C583.513 243.427 576.905 246.166 570.962 251.645C565.052 257.123 562.097 263.93 562.097 272.064C562.097 282.457 565.716 291.588 572.954 299.457C580.192 307.326 588.311 311.261 597.309 311.261Z" fill="url(#paint0_linear_23_29)"/>
<defs>
<linearGradient id="paint0_linear_23_29" x1="944" y1="146.5" x2="-1.93022e-05" y2="160" gradientUnits="userSpaceOnUse">
<stop stop-color="#CB9E33" stop-opacity="0.933333"/>
<stop offset="0.2" stop-color="#EDD06A" stop-opacity="0.966667"/>
<stop offset="0.4" stop-color="#FCEA94" stop-opacity="0.983333"/>
<stop offset="0.6" stop-color="#FADE7B" stop-opacity="0.991667"/>
<stop offset="0.8" stop-color="#FDEE9D" stop-opacity="0.995833"/>
<stop offset="1" stop-color="#C29225"/>
</linearGradient>
</defs>
</svg>
