<svg width="14" height="8" viewBox="0 0 14 8" fill="none" xmlns="http://www.w3.org/2000/svg">
<path d="M13 4.5C13.2761 4.5 13.5 4.27614 13.5 4C13.5 3.72386 13.2761 3.5 13 3.5L13 4.5ZM0.646447 3.64644C0.451185 3.8417 0.451184 4.15828 0.646446 4.35355L3.82843 7.53553C4.02369 7.73079 4.34027 7.73079 4.53553 7.53553C4.73079 7.34027 4.73079 7.02368 4.53553 6.82842L1.70711 3.99999L4.53554 1.17157C4.7308 0.976306 4.7308 0.659724 4.53554 0.464462C4.34027 0.269199 4.02369 0.269199 3.82843 0.464461L0.646447 3.64644ZM13 3.5L1 3.49999L1 4.49999L13 4.5L13 3.5Z" fill="#2F2F2F"/>
</svg>
