<svg width="47" height="16" viewBox="0 0 47 16" fill="none" xmlns="http://www.w3.org/2000/svg">
<path d="M13.66 5.26H11.16C10.74 3.62 9.68 2.42 7.6 2.42C4.54 2.42 3.26 5.12 3.26 7.86C3.26 10.6 4.54 13.3 7.6 13.3C9.82 13.3 11.04 11.64 11.24 9.56H13.68C13.48 12.98 11.06 15.34 7.6 15.34C3.32 15.34 0.76 11.94 0.76 7.86C0.76 3.78 3.32 0.38 7.6 0.38C10.82 0.4 13.36 2.18 13.66 5.26ZM15.6936 15V0.719999H17.9736V15H15.6936ZM20.5178 15V4.66H22.7978V15H20.5178ZM20.5178 2.88V0.719999H22.7978V2.88H20.5178ZM34.542 8.12H32.262C32.082 6.86 31.162 6.18 29.902 6.18C28.722 6.18 27.062 6.8 27.062 9.94C27.062 11.66 27.822 13.48 29.802 13.48C31.122 13.48 32.042 12.6 32.262 11.12H34.542C34.122 13.8 32.462 15.28 29.802 15.28C26.562 15.28 24.782 12.98 24.782 9.94C24.782 6.82 26.482 4.38 29.882 4.38C32.282 4.38 34.322 5.58 34.542 8.12ZM36.4553 15V0.719999H38.7353V8.84L42.8553 4.66H45.6553L41.6953 8.46L46.0353 15H43.2553L40.0953 9.98L38.7353 11.3V15H36.4553Z" fill="white"/>
</svg>
