<svg width="108" height="16" viewBox="0 0 108 16" fill="none" xmlns="http://www.w3.org/2000/svg">
<path d="M13.66 5.26H11.16C10.74 3.62 9.68 2.42 7.6 2.42C4.54 2.42 3.26 5.12 3.26 7.86C3.26 10.6 4.54 13.3 7.6 13.3C9.82 13.3 11.04 11.64 11.24 9.56H13.68C13.48 12.98 11.06 15.34 7.6 15.34C3.32 15.34 0.76 11.94 0.76 7.86C0.76 3.78 3.32 0.38 7.6 0.38C10.82 0.4 13.36 2.18 13.66 5.26ZM20.3736 13.48C22.4136 13.48 23.3136 11.62 23.3136 9.82C23.3136 8.04 22.4136 6.18 20.3736 6.18C18.3336 6.18 17.4336 8.04 17.4336 9.82C17.4336 11.62 18.3336 13.48 20.3736 13.48ZM20.3736 15.28C17.0536 15.28 15.1536 13 15.1536 9.82C15.1536 6.66 17.0536 4.38 20.3736 4.38C23.6936 4.38 25.5936 6.66 25.5936 9.82C25.5936 13 23.6936 15.28 20.3736 15.28ZM27.4891 15V4.66H29.6491V6.18L29.6891 6.22C30.3691 5.08 31.5491 4.38 32.9091 4.38C35.1491 4.38 36.5691 5.58 36.5691 7.9V15H34.2891V8.5C34.2491 6.88 33.6091 6.18 32.2691 6.18C30.7491 6.18 29.7691 7.38 29.7691 8.9V15H27.4891ZM37.9334 6.36V4.66H39.6534V1.56H41.9334V4.66H43.9934V6.36H41.9334V11.88C41.9334 12.82 42.0134 13.3 43.0334 13.3C43.3534 13.3 43.6734 13.3 43.9934 13.22V14.98C43.4934 15.02 43.0134 15.1 42.5134 15.1C40.1334 15.1 39.6934 14.18 39.6534 12.46V6.36H37.9334ZM52.0136 11.52V9.82C51.3136 10.28 50.2136 10.26 49.2136 10.44C48.2336 10.6 47.3536 10.96 47.3536 12.16C47.3536 13.18 48.6536 13.48 49.4536 13.48C50.4536 13.48 52.0136 12.96 52.0136 11.52ZM54.2936 7.38V12.7C54.2936 13.26 54.4136 13.48 54.8336 13.48C54.9736 13.48 55.1536 13.48 55.3936 13.44V15.02C55.0536 15.14 54.3336 15.28 53.9536 15.28C53.0336 15.28 52.3736 14.96 52.1936 14.02C51.2936 14.9 49.8336 15.28 48.6136 15.28C46.7536 15.28 45.0736 14.28 45.0736 12.26C45.0736 9.68 47.1336 9.26 49.0536 9.04C50.6936 8.74 52.1536 8.92 52.1536 7.58C52.1536 6.4 50.9336 6.18 50.0136 6.18C48.7336 6.18 47.8336 6.7 47.7336 7.82H45.4536C45.6136 5.16 47.8736 4.38 50.1536 4.38C52.1736 4.38 54.2936 5.2 54.2936 7.38ZM66.0069 8.12H63.7269C63.5469 6.86 62.6269 6.18 61.3669 6.18C60.1869 6.18 58.5269 6.8 58.5269 9.94C58.5269 11.66 59.2869 13.48 61.2669 13.48C62.5869 13.48 63.5069 12.6 63.7269 11.12H66.0069C65.5869 13.8 63.9269 15.28 61.2669 15.28C58.0269 15.28 56.2469 12.98 56.2469 9.94C56.2469 6.82 57.9469 4.38 61.3469 4.38C63.7469 4.38 65.7869 5.58 66.0069 8.12ZM66.8202 6.36V4.66H68.5402V1.56H70.8202V4.66H72.8802V6.36H70.8202V11.88C70.8202 12.82 70.9002 13.3 71.9202 13.3C72.2402 13.3 72.5602 13.3 72.8802 13.22V14.98C72.3802 15.02 71.9002 15.1 71.4002 15.1C69.0202 15.1 68.5802 14.18 68.5402 12.46V6.36H66.8202ZM80.0867 15V4.66H82.2467V6.1H82.3067C82.9867 5.08 83.8467 4.38 85.4867 4.38C86.7467 4.38 87.9267 4.92 88.3867 6.1C89.1467 5.04 90.1267 4.38 91.6267 4.38C93.8067 4.38 95.0867 5.34 95.0867 7.86V15H92.8067V8.96C92.8067 7.32 92.7067 6.18 90.9267 6.18C89.3867 6.18 88.7267 7.2 88.7267 8.94V15H86.4467V8.36C86.4467 6.94 86.0067 6.18 84.6267 6.18C83.4467 6.18 82.3667 7.14 82.3667 8.86V15H80.0867ZM106.869 10.42H99.2691C99.2691 12.04 100.149 13.48 102.049 13.48C103.369 13.48 104.169 12.9 104.569 11.76H106.729C106.229 14.02 104.309 15.28 102.049 15.28C98.8091 15.28 96.9891 13.02 96.9891 9.84C96.9891 6.9 98.9091 4.38 101.989 4.38C105.249 4.38 107.249 7.32 106.869 10.42ZM99.2691 8.92H104.589C104.509 7.48 103.529 6.18 101.989 6.18C100.409 6.18 99.3291 7.38 99.2691 8.92Z" fill="white"/>
</svg>
