<svg width="42" height="16" viewBox="0 0 42 16" fill="none" xmlns="http://www.w3.org/2000/svg">
<path d="M0.46 15V0.719999H2.96V6.4H9.46V0.719999H11.96V15H9.46V8.56H2.96V15H0.46ZM19.3736 13.48C21.4136 13.48 22.3136 11.62 22.3136 9.82C22.3136 8.04 21.4136 6.18 19.3736 6.18C17.3336 6.18 16.4336 8.04 16.4336 9.82C16.4336 11.62 17.3336 13.48 19.3736 13.48ZM19.3736 15.28C16.0536 15.28 14.1536 13 14.1536 9.82C14.1536 6.66 16.0536 4.38 19.3736 4.38C22.6936 4.38 24.5936 6.66 24.5936 9.82C24.5936 13 22.6936 15.28 19.3736 15.28ZM26.5491 15V0.719999H28.8291V15H26.5491ZM37.6933 11.52V9.82C36.9933 10.28 35.8933 10.26 34.8933 10.44C33.9133 10.6 33.0333 10.96 33.0333 12.16C33.0333 13.18 34.3333 13.48 35.1333 13.48C36.1333 13.48 37.6933 12.96 37.6933 11.52ZM39.9733 7.38V12.7C39.9733 13.26 40.0933 13.48 40.5133 13.48C40.6533 13.48 40.8333 13.48 41.0733 13.44V15.02C40.7333 15.14 40.0133 15.28 39.6333 15.28C38.7133 15.28 38.0533 14.96 37.8733 14.02C36.9733 14.9 35.5133 15.28 34.2933 15.28C32.4333 15.28 30.7533 14.28 30.7533 12.26C30.7533 9.68 32.8133 9.26 34.7333 9.04C36.3733 8.74 37.8333 8.92 37.8333 7.58C37.8333 6.4 36.6133 6.18 35.6933 6.18C34.4133 6.18 33.5133 6.7 33.4133 7.82H31.1333C31.2933 5.16 33.5533 4.38 35.8333 4.38C37.8533 4.38 39.9733 5.2 39.9733 7.38Z" fill="white"/>
</svg>
