<svg width="115" height="19" viewBox="0 0 115 19" fill="none" xmlns="http://www.w3.org/2000/svg">
<path d="M0.52 15V0.719999H10.8V2.88H3.02V6.62H10.22V8.66H3.02V12.84H10.94V15H0.52ZM11.6777 15L15.5777 9.56L11.9977 4.66H14.7577L16.9177 7.84L19.1777 4.66H21.8177L18.2977 9.44L22.2577 15H19.5177L16.8977 11.18L14.3577 15H11.6777ZM31.5598 9.84C31.5598 7.96 30.5798 6.18 28.6998 6.18C26.7798 6.18 25.7998 7.64 25.7998 9.84C25.7998 11.92 26.8598 13.48 28.6998 13.48C30.7798 13.48 31.5598 11.64 31.5598 9.84ZM23.5998 18.82V4.66H25.7598V6.06H25.7998C26.4398 4.88 27.6798 4.38 28.9998 4.38C32.2598 4.38 33.8398 6.86 33.8398 9.88C33.8398 12.66 32.4398 15.28 29.3798 15.28C28.0598 15.28 26.6398 14.8 25.9198 13.66H25.8798V18.82H23.5998ZM45.1464 10.42H37.5464C37.5464 12.04 38.4264 13.48 40.3264 13.48C41.6464 13.48 42.4464 12.9 42.8464 11.76H45.0064C44.5064 14.02 42.5864 15.28 40.3264 15.28C37.0864 15.28 35.2664 13.02 35.2664 9.84C35.2664 6.9 37.1864 4.38 40.2664 4.38C43.5264 4.38 45.5264 7.32 45.1464 10.42ZM37.5464 8.92H42.8664C42.7864 7.48 41.8064 6.18 40.2664 6.18C38.6864 6.18 37.6064 7.38 37.5464 8.92ZM46.8797 15V4.66H49.0197V6.66H49.0597C49.3197 5.56 50.6797 4.38 52.0797 4.38C52.5997 4.38 52.7397 4.42 52.9397 4.44V6.64C52.6197 6.6 52.2797 6.54 51.9597 6.54C50.3997 6.54 49.1597 7.8 49.1597 10.08V15H46.8797ZM53.9709 15V4.66H56.2509V15H53.9709ZM53.9709 2.88V0.719999H56.2509V2.88H53.9709ZM58.7352 15V4.66H60.8952V6.1H60.9552C61.6352 5.08 62.4952 4.38 64.1352 4.38C65.3952 4.38 66.5752 4.92 67.0352 6.1C67.7952 5.04 68.7752 4.38 70.2752 4.38C72.4552 4.38 73.7352 5.34 73.7352 7.86V15H71.4552V8.96C71.4552 7.32 71.3552 6.18 69.5752 6.18C68.0352 6.18 67.3752 7.2 67.3752 8.94V15H65.0952V8.36C65.0952 6.94 64.6552 6.18 63.2752 6.18C62.0952 6.18 61.0152 7.14 61.0152 8.86V15H58.7352ZM85.5175 10.42H77.9175C77.9175 12.04 78.7975 13.48 80.6975 13.48C82.0175 13.48 82.8175 12.9 83.2175 11.76H85.3775C84.8775 14.02 82.9575 15.28 80.6975 15.28C77.4575 15.28 75.6375 13.02 75.6375 9.84C75.6375 6.9 77.5575 4.38 80.6375 4.38C83.8975 4.38 85.8975 7.32 85.5175 10.42ZM77.9175 8.92H83.2375C83.1575 7.48 82.1775 6.18 80.6375 6.18C79.0575 6.18 77.9775 7.38 77.9175 8.92ZM87.2508 15V4.66H89.4108V6.18L89.4508 6.22C90.1308 5.08 91.3108 4.38 92.6708 4.38C94.9108 4.38 96.3308 5.58 96.3308 7.9V15H94.0508V8.5C94.0108 6.88 93.3708 6.18 92.0308 6.18C90.5108 6.18 89.5308 7.38 89.5308 8.9V15H87.2508ZM97.6952 6.36V4.66H99.4152V1.56H101.695V4.66H103.755V6.36H101.695V11.88C101.695 12.82 101.775 13.3 102.795 13.3C103.115 13.3 103.435 13.3 103.755 13.22V14.98C103.255 15.02 102.775 15.1 102.275 15.1C99.8952 15.1 99.4552 14.18 99.4152 12.46V6.36H97.6952ZM104.835 11.68H107.115C107.235 13 108.235 13.48 109.455 13.48C110.315 13.48 111.815 13.3 111.755 12.12C111.695 10.92 110.035 10.78 108.375 10.4C106.695 10.04 105.055 9.44 105.055 7.34C105.055 5.08 107.495 4.38 109.375 4.38C111.495 4.38 113.415 5.26 113.695 7.56H111.315C111.115 6.48 110.215 6.18 109.215 6.18C108.555 6.18 107.335 6.34 107.335 7.24C107.335 8.36 109.015 8.52 110.695 8.9C112.355 9.28 114.035 9.88 114.035 11.92C114.035 14.38 111.555 15.28 109.415 15.28C106.815 15.28 104.875 14.12 104.835 11.68Z" fill="white"/>
</svg>
