<svg width="65" height="20" viewBox="0 0 65 20" fill="none" xmlns="http://www.w3.org/2000/svg">
<path d="M3.02 2.76V7.48H6.68C7.8 7.48 9.18 6.92 9.18 5.12C9.18 3.24 8.04 2.76 6.72 2.76H3.02ZM0.52 15V0.719999H6.82C10.9 0.719999 11.68 3.36 11.68 5.14C11.68 6.9 10.9 9.54 6.82 9.52H3.02V15H0.52ZM13.5398 15V4.66H15.6798V6.66H15.7198C15.9798 5.56 17.3398 4.38 18.7398 4.38C19.2598 4.38 19.3998 4.42 19.5998 4.44V6.64C19.2798 6.6 18.9398 6.54 18.6198 6.54C17.0598 6.54 15.8198 7.8 15.8198 10.08V15H13.5398ZM24.9595 13.48C26.9995 13.48 27.8995 11.62 27.8995 9.82C27.8995 8.04 26.9995 6.18 24.9595 6.18C22.9195 6.18 22.0195 8.04 22.0195 9.82C22.0195 11.62 22.9195 13.48 24.9595 13.48ZM24.9595 15.28C21.6395 15.28 19.7395 13 19.7395 9.82C19.7395 6.66 21.6395 4.38 24.9595 4.38C28.2795 4.38 30.1795 6.66 30.1795 9.82C30.1795 13 28.2795 15.28 24.9595 15.28ZM32.135 15.78V4.66H34.415V15.88C34.415 17.94 33.595 19.1 31.455 19.1C31.015 19.1 30.735 19.06 30.435 19.02V17.22C30.735 17.26 30.995 17.3 31.215 17.3C32.055 17.3 32.135 16.8 32.135 15.78ZM32.135 2.88V0.719999H34.415V2.88H32.135ZM46.2792 10.42H38.6792C38.6792 12.04 39.5592 13.48 41.4592 13.48C42.7792 13.48 43.5792 12.9 43.9792 11.76H46.1392C45.6392 14.02 43.7192 15.28 41.4592 15.28C38.2192 15.28 36.3992 13.02 36.3992 9.84C36.3992 6.9 38.3192 4.38 41.3992 4.38C44.6592 4.38 46.6592 7.32 46.2792 10.42ZM38.6792 8.92H43.9992C43.9192 7.48 42.9392 6.18 41.3992 6.18C39.8192 6.18 38.7392 7.38 38.6792 8.92ZM57.2725 8.12H54.9925C54.8125 6.86 53.8925 6.18 52.6325 6.18C51.4525 6.18 49.7925 6.8 49.7925 9.94C49.7925 11.66 50.5525 13.48 52.5325 13.48C53.8525 13.48 54.7725 12.6 54.9925 11.12H57.2725C56.8525 13.8 55.1925 15.28 52.5325 15.28C49.2925 15.28 47.5125 12.98 47.5125 9.94C47.5125 6.82 49.2125 4.38 52.6125 4.38C55.0125 4.38 57.0525 5.58 57.2725 8.12ZM58.0858 6.36V4.66H59.8058V1.56H62.0858V4.66H64.1458V6.36H62.0858V11.88C62.0858 12.82 62.1658 13.3 63.1858 13.3C63.5058 13.3 63.8258 13.3 64.1458 13.22V14.98C63.6458 15.02 63.1658 15.1 62.6658 15.1C60.2858 15.1 59.8458 14.18 59.8058 12.46V6.36H58.0858Z" fill="white"/>
</svg>
