<svg width="30" height="30" viewBox="0 0 30 30" fill="none" xmlns="http://www.w3.org/2000/svg">
<circle cx="15" cy="15" r="14.5" stroke="#2F2F2F"/>
<path d="M6.62 14.915C7.425 15.115 7.95 15.25 7.95 16.065C7.95 16.585 7.565 17.07 6.66 17.07C5.815 17.07 5.16 16.62 5.11 15.8H5.56C5.61 16.29 5.91 16.67 6.66 16.67C7.28 16.67 7.5 16.385 7.5 16.065C7.5 15.575 7.235 15.485 6.435 15.3C5.9 15.175 5.26 14.99 5.26 14.295C5.26 13.73 5.695 13.355 6.485 13.355C7.245 13.355 7.775 13.745 7.835 14.485H7.385C7.32 14.005 7.05 13.755 6.485 13.755C5.98 13.755 5.71 13.95 5.71 14.245C5.71 14.72 6.095 14.785 6.62 14.915ZM11.0549 14.605C10.9899 14.265 10.7299 13.755 9.98488 13.755C9.13488 13.755 8.77988 14.49 8.77988 15.21C8.77988 15.935 9.13488 16.67 9.98488 16.67C10.7349 16.67 11.0249 16.16 11.0549 15.71H11.5049C11.4249 16.5 10.8649 17.07 9.98488 17.07C9.00488 17.07 8.32988 16.29 8.32988 15.21C8.32988 14.135 9.00488 13.355 9.98488 13.355C10.8599 13.355 11.4199 13.925 11.5049 14.605H11.0549ZM12.0098 17V13.425H13.4598C14.1648 13.425 14.6398 13.805 14.6398 14.44C14.6398 14.955 14.3948 15.24 13.9998 15.34V15.35C14.7948 15.505 14.5048 16.91 14.6898 16.97V17H14.2048C14.0498 16.85 14.3898 15.555 13.4848 15.555H12.4598V17H12.0098ZM12.4598 13.825V15.155H13.3548C13.7248 15.155 14.1898 15.11 14.1898 14.49C14.1898 13.87 13.7248 13.825 13.3548 13.825H12.4598ZM16.7889 17.07C15.7389 17.07 15.0389 16.285 15.0389 15.21C15.0389 14.135 15.7389 13.355 16.7889 13.355C17.8389 13.355 18.5389 14.135 18.5389 15.21C18.5389 16.285 17.8389 17.07 16.7889 17.07ZM16.7889 16.67C17.6889 16.67 18.0889 15.98 18.0889 15.21C18.0889 14.44 17.6889 13.755 16.7889 13.755C15.8889 13.755 15.4889 14.44 15.4889 15.21C15.4889 15.98 15.8889 16.67 16.7889 16.67ZM19.0752 13.425H19.5252V16.6H21.4002V17H19.0752V13.425ZM21.8438 13.425H22.2938V16.6H24.1688V17H21.8438V13.425Z" fill="#2F2F2F"/>
</svg>
