<svg width="51" height="16" viewBox="0 0 51 16" fill="none" xmlns="http://www.w3.org/2000/svg">
<path d="M0.66 10.24H3.16C3.16 12.44 4.78 13.3 6.78 13.3C8.98 13.3 9.8 12.22 9.8 11.14C9.8 10.04 9.2 9.6 8.62 9.38C7.62 9 6.32 8.74 4.36 8.2C1.92 7.54 1.2 6.06 1.2 4.58C1.2 1.72 3.84 0.38 6.42 0.38C9.4 0.38 11.9 1.96 11.9 4.94H9.4C9.28 3.1 8.04 2.42 6.32 2.42C5.16 2.42 3.7 2.84 3.7 4.28C3.7 5.28 4.38 5.84 5.4 6.12C5.62 6.18 8.78 7 9.52 7.22C11.4 7.78 12.3 9.38 12.3 10.86C12.3 14.06 9.46 15.34 6.62 15.34C3.36 15.34 0.72 13.78 0.66 10.24ZM23.4288 8.12H21.1488C20.9688 6.86 20.0488 6.18 18.7888 6.18C17.6088 6.18 15.9488 6.8 15.9488 9.94C15.9488 11.66 16.7088 13.48 18.6888 13.48C20.0088 13.48 20.9288 12.6 21.1488 11.12H23.4288C23.0088 13.8 21.3488 15.28 18.6888 15.28C15.4488 15.28 13.6688 12.98 13.6688 9.94C13.6688 6.82 15.3688 4.38 18.7688 4.38C21.1688 4.38 23.2088 5.58 23.4288 8.12ZM25.282 15V4.66H27.422V6.66H27.462C27.722 5.56 29.082 4.38 30.482 4.38C31.002 4.38 31.142 4.42 31.342 4.44V6.64C31.022 6.6 30.682 6.54 30.362 6.54C28.802 6.54 27.562 7.8 27.562 10.08V15H25.282ZM36.7017 13.48C38.7417 13.48 39.6417 11.62 39.6417 9.82C39.6417 8.04 38.7417 6.18 36.7017 6.18C34.6617 6.18 33.7617 8.04 33.7617 9.82C33.7617 11.62 34.6617 13.48 36.7017 13.48ZM36.7017 15.28C33.3817 15.28 31.4817 13 31.4817 9.82C31.4817 6.66 33.3817 4.38 36.7017 4.38C40.0217 4.38 41.9217 6.66 41.9217 9.82C41.9217 13 40.0217 15.28 36.7017 15.28ZM43.8772 15V0.719999H46.1572V15H43.8772ZM48.7014 15V0.719999H50.9814V15H48.7014Z" fill="white"/>
</svg>
