<svg width="37" height="11" viewBox="0 0 37 11" fill="none" xmlns="http://www.w3.org/2000/svg">
<path d="M0.962 7.26801H2.712C2.712 8.80801 3.846 9.41001 5.246 9.41001C6.786 9.41001 7.36 8.65401 7.36 7.89801C7.36 7.12801 6.94 6.82001 6.534 6.66601C5.834 6.40001 4.924 6.21801 3.552 5.84001C1.844 5.37801 1.34 4.34201 1.34 3.30601C1.34 1.30401 3.188 0.366006 4.994 0.366006C7.08 0.366006 8.83 1.47201 8.83 3.55801H7.08C6.996 2.27001 6.128 1.79401 4.924 1.79401C4.112 1.79401 3.09 2.08801 3.09 3.09601C3.09 3.79601 3.566 4.18801 4.28 4.38401C4.434 4.42601 6.646 5.00001 7.164 5.15401C8.48 5.54601 9.11 6.66601 9.11 7.70201C9.11 9.94201 7.122 10.838 5.134 10.838C2.852 10.838 1.004 9.74601 0.962 7.26801ZM16.9001 5.78401H15.3041C15.1781 4.90201 14.5341 4.42601 13.6521 4.42601C12.8261 4.42601 11.6641 4.86001 11.6641 7.05801C11.6641 8.26201 12.1961 9.53601 13.5821 9.53601C14.5061 9.53601 15.1501 8.92001 15.3041 7.88401H16.9001C16.6061 9.76001 15.4441 10.796 13.5821 10.796C11.3141 10.796 10.0681 9.18601 10.0681 7.05801C10.0681 4.87401 11.2581 3.16601 13.6381 3.16601C15.3181 3.16601 16.7461 4.00601 16.9001 5.78401ZM18.1974 10.6V3.36201H19.6954V4.76201H19.7234C19.9054 3.99201 20.8574 3.16601 21.8374 3.16601C22.2014 3.16601 22.2994 3.19401 22.4394 3.20801V4.74801C22.2154 4.72001 21.9774 4.67801 21.7534 4.67801C20.6614 4.67801 19.7934 5.56001 19.7934 7.15601V10.6H18.1974ZM26.1912 9.53601C27.6192 9.53601 28.2492 8.23401 28.2492 6.97401C28.2492 5.72801 27.6192 4.42601 26.1912 4.42601C24.7632 4.42601 24.1332 5.72801 24.1332 6.97401C24.1332 8.23401 24.7632 9.53601 26.1912 9.53601ZM26.1912 10.796C23.8672 10.796 22.5372 9.20001 22.5372 6.97401C22.5372 4.76201 23.8672 3.16601 26.1912 3.16601C28.5152 3.16601 29.8452 4.76201 29.8452 6.97401C29.8452 9.20001 28.5152 10.796 26.1912 10.796ZM31.214 10.6V0.604005H32.81V10.6H31.214ZM34.591 10.6V0.604005H36.187V10.6H34.591Z" fill="white"/>
</svg>
