<svg width="40" height="40" viewBox="0 0 40 40" fill="none" xmlns="http://www.w3.org/2000/svg">
<path d="M19.9999 39.2116C30.6102 39.2116 39.2116 30.6103 39.2116 20C39.2116 9.38973 30.6102 0.788391 19.9999 0.788391C9.38966 0.788391 0.78833 9.38973 0.78833 20C0.78833 30.6103 9.38966 39.2116 19.9999 39.2116Z" stroke="#2F2F2F" stroke-width="0.829876"/>
<path d="M6.691 19.5394C8.0271 19.8714 8.89847 20.0954 8.89847 21.4481C8.89847 22.3112 8.25946 23.1162 6.75739 23.1162C5.3549 23.1162 4.26776 22.3693 4.18478 21.0083H4.93166C5.01465 21.8216 5.51258 22.4523 6.75739 22.4523C7.78644 22.4523 8.15158 21.9793 8.15158 21.4481C8.15158 20.6349 7.71175 20.4855 6.38395 20.1784C5.49598 19.971 4.43374 19.6639 4.43374 18.5104C4.43374 17.5726 5.15573 16.9502 6.46693 16.9502C7.72834 16.9502 8.60801 17.5975 8.7076 18.8257H7.96071C7.85283 18.029 7.40469 17.6141 6.46693 17.6141C5.62876 17.6141 5.18063 17.9378 5.18063 18.4274C5.18063 19.2158 5.81963 19.3237 6.691 19.5394ZM14.0518 19.0249C13.9439 18.4606 13.5124 17.6141 12.2759 17.6141C10.8651 17.6141 10.2759 18.834 10.2759 20.029C10.2759 21.2324 10.8651 22.4523 12.2759 22.4523C13.5207 22.4523 14.002 21.6058 14.0518 20.8589H14.7987C14.6659 22.1701 13.7364 23.1162 12.2759 23.1162C10.6493 23.1162 9.52898 21.8216 9.52898 20.029C9.52898 18.2448 10.6493 16.9502 12.2759 16.9502C13.7281 16.9502 14.6576 17.8963 14.7987 19.0249H14.0518ZM15.6367 23V17.0664H18.0434C19.2135 17.0664 20.0019 17.6971 20.0019 18.751C20.0019 19.6058 19.5952 20.0788 18.9396 20.2448V20.2614C20.2591 20.5187 19.7778 22.8506 20.0849 22.9502V23H19.2799C19.0226 22.751 19.5869 20.6017 18.0849 20.6017H16.3836V23H15.6367ZM16.3836 17.7303V19.9378H17.8691C18.4832 19.9378 19.255 19.8631 19.255 18.834C19.255 17.805 18.4832 17.7303 17.8691 17.7303H16.3836ZM23.5688 23.1162C21.826 23.1162 20.6642 21.8133 20.6642 20.029C20.6642 18.2448 21.826 16.9502 23.5688 16.9502C25.3115 16.9502 26.4734 18.2448 26.4734 20.029C26.4734 21.8133 25.3115 23.1162 23.5688 23.1162ZM23.5688 22.4523C25.0626 22.4523 25.7265 21.3071 25.7265 20.029C25.7265 18.751 25.0626 17.6141 23.5688 17.6141C22.075 17.6141 21.4111 18.751 21.4111 20.029C21.4111 21.3071 22.075 22.4523 23.5688 22.4523ZM27.3636 17.0664H28.1105V22.3361H31.2225V23H27.3636V17.0664ZM31.9587 17.0664H32.7056V22.3361H35.8176V23H31.9587V17.0664Z" fill="#2F2F2F"/>
</svg>
