{
  "accessors": [
    {
      "bufferView": 2,
      "componentType": 5126,
      "count": 1431,
      "max": [
        2.2423970699310303,
        -0.49244898557662964,
        0.4944530129432678
      ],
      "min": [
        1.304548978805542,
        -1.4240360260009766,
        -1.0441540479660034
      ],
      "type": "VEC3"
    },
    {
      "bufferView": 2,
      "byteOffset": 17172,
      "componentType": 5126,
      "count": 1431,
      "max": [
        0.9998000264167786,
        0.9995132088661194,
        0.9971620440483093
      ],
      "min": [
        -0.9998325705528259,
        -1.0,
        -0.99952632188797
      ],
      "type": "VEC3"
    },
    {
      "bufferView": 1,
      "componentType": 5126,
      "count": 1431,
      "max": [
        1.223510980606079,
        1.0162049531936646
      ],
      "min": [
        -0.1925249993801117,
        -0.015991000458598137
      ],
      "type": "VEC2"
    },
    {
      "bufferView": 0,
      "componentType": 5125,
      "count": 3684,
      "type": "SCALAR"
    },
    {
      "bufferView": 2,
      "byteOffset": 34344,
      "componentType": 5126,
      "count": 46,
      "max": [
        3.181169033050537,
        0.43999001383781433,
        -2.28120493888855
      ],
      "min": [
        0.36576899886131287,
        -2.3486220836639404,
        -4.840726852416992
      ],
      "type": "VEC3"
    },
    {
      "bufferView": 2,
      "byteOffset": 34896,
      "componentType": 5126,
      "count": 46,
      "max": [
        0.48762860894203186,
        -0.5636052489280701,
        0.8236076235771179
      ],
      "min": [
        -0.277595192193985,
        -1.0,
        -0.3672974109649658
      ],
      "type": "VEC3"
    },
    {
      "bufferView": 1,
      "byteOffset": 11448,
      "componentType": 5126,
      "count": 46,
      "max": [
        0.8998299837112427,
        1.0001070499420166
      ],
      "min": [
        0.01461699977517128,
        1.700000029813964e-05
      ],
      "type": "VEC2"
    },
    {
      "bufferView": 0,
      "byteOffset": 14736,
      "componentType": 5125,
      "count": 60,
      "type": "SCALAR"
    },
    {
      "bufferView": 2,
      "byteOffset": 35448,
      "componentType": 5126,
      "count": 4776,
      "max": [
        3.2184879779815674,
        0.47966599464416504,
        -0.8542770147323608
      ],
      "min": [
        0.32216599583625793,
        -2.3946900367736816,
        -5.463188171386719
      ],
      "type": "VEC3"
    },
    {
      "bufferView": 2,
      "byteOffset": 92760,
      "componentType": 5126,
      "count": 4776,
      "max": [
        1.0,
        1.0,
        0.9999874830245972
      ],
      "min": [
        -1.0,
        -1.0,
        -0.9995617866516113
      ],
      "type": "VEC3"
    },
    {
      "bufferView": 1,
      "byteOffset": 11816,
      "componentType": 5126,
      "count": 4776,
      "max": [
        1.0,
        1.0062810182571411
      ],
      "min": [
        0.0,
        0.0
      ],
      "type": "VEC2"
    },
    {
      "bufferView": 0,
      "byteOffset": 14976,
      "componentType": 5125,
      "count": 10995,
      "type": "SCALAR"
    },
    {
      "bufferView": 2,
      "byteOffset": 150072,
      "componentType": 5126,
      "count": 87,
      "max": [
        3.2010650634765625,
        0.463113009929657,
        -0.17855699360370636
      ],
      "min": [
        0.34587299823760986,
        -2.37174391746521,
        -4.840726852416992
      ],
      "type": "VEC3"
    },
    {
      "bufferView": 2,
      "byteOffset": 151116,
      "componentType": 5126,
      "count": 87,
      "max": [
        0.9490238428115845,
        0.7443296313285828,
        0.5773502588272095
      ],
      "min": [
        -0.9756930470466614,
        -1.0,
        -0.939629316329956
      ],
      "type": "VEC3"
    },
    {
      "bufferView": 1,
      "byteOffset": 50024,
      "componentType": 5126,
      "count": 87,
      "max": [
        0.9909890294075012,
        0.9550930261611938
      ],
      "min": [
        0.010641999542713165,
        0.04048300161957741
      ],
      "type": "VEC2"
    },
    {
      "bufferView": 0,
      "byteOffset": 58956,
      "componentType": 5125,
      "count": 126,
      "type": "SCALAR"
    },
    {
      "bufferView": 2,
      "byteOffset": 152160,
      "componentType": 5126,
      "count": 12,
      "max": [
        7.975194931030273,
        7.934671878814697,
        12.443251609802246
      ],
      "min": [
        -9.934672355651855,
        -9.986327171325684,
        -5.485352039337158
      ],
      "type": "VEC3"
    },
    {
      "bufferView": 2,
      "byteOffset": 152304,
      "componentType": 5126,
      "count": 12,
      "max": [
        1.0,
        1.0,
        1.0
      ],
      "min": [
        0.0,
        -0.0,
        0.0
      ],
      "type": "VEC3"
    },
    {
      "bufferView": 1,
      "byteOffset": 50720,
      "componentType": 5126,
      "count": 12,
      "max": [
        1.0,
        1.0
      ],
      "min": [
        0.0,
        0.0
      ],
      "type": "VEC2"
    },
    {
      "bufferView": 0,
      "byteOffset": 59460,
      "componentType": 5125,
      "count": 18,
      "type": "SCALAR"
    }
  ],
  "asset": {
    "extras": {
      "author": "jimenex (https://sketchfab.com/jimenex)",
      "license": "CC-BY-4.0 (http://creativecommons.org/licenses/by/4.0/)",
      "source": "https://sketchfab.com/3d-models/botella-whisky-28024150b46448debe1bbc22b6e0d1d1",
      "title": "Botella Whisky"
    },
    "generator": "Sketchfab-15.40.0",
    "version": "2.0"
  },
  "bufferViews": [
    {
      "buffer": 0,
      "byteLength": 59532,
      "name": "floatBufferViews",
      "target": 34963
    },
    {
      "buffer": 0,
      "byteLength": 50816,
      "byteOffset": 59532,
      "byteStride": 8,
      "name": "floatBufferViews",
      "target": 34962
    },
    {
      "buffer": 0,
      "byteLength": 152448,
      "byteOffset": 110348,
      "byteStride": 12,
      "name": "floatBufferViews",
      "target": 34962
    }
  ],
  "buffers": [
    {
      "byteLength": 262796,
      "uri": "scene.bin"
    }
  ],
  "extensionsUsed": [
    "KHR_materials_specular"
  ],
  "images": [
    {
      "uri": "textures/Material.002_baseColor.jpeg"
    },
    {
      "uri": "textures/cst_wood_1.001_baseColor.png"
    },
    {
      "uri": "textures/cst_wood_1.001_metallicRoughness.png"
    }
  ],
  "materials": [
    {
      "doubleSided": true,
      "name": "Material",
      "pbrMetallicRoughness": {
        "metallicFactor": 0.0,
        "roughnessFactor": 0.6
      }
    },
    {
      "doubleSided": true,
      "name": "Material.002",
      "pbrMetallicRoughness": {
        "baseColorTexture": {
          "index": 0
        },
        "metallicFactor": 0.0,
        "roughnessFactor": 0.6
      }
    },
    {
      "doubleSided": true,
      "name": "Material.003",
      "pbrMetallicRoughness": {
        "baseColorFactor": [
          0.011750637479589597,
          0.007355512812183863,
          0.007355512812183863,
          1.0
        ],
        "metallicFactor": 0.0,
        "roughnessFactor": 0.2692376678887815
      }
    },
    {
      "doubleSided": true,
      "extensions": {
        "KHR_materials_specular": {
          "specularColorFactor": [
            1.0,
            1.0,
            1.0
          ],
          "specularFactor": 1.0
        }
      },
      "name": "Material.006",
      "pbrMetallicRoughness": {
        "baseColorFactor": [
          0.1542627968560866,
          0.03471806022619804,
          0.0,
          1.0
        ],
        "roughnessFactor": 0.18
      }
    },
    {
      "doubleSided": true,
      "extensions": {
        "KHR_materials_specular": {
          "specularColorFactor": [
            1.0,
            1.0,
            1.0
          ],
          "specularFactor": 0.44952517950530896
        }
      },
      "name": "cst_wood_1.001",
      "pbrMetallicRoughness": {
        "baseColorTexture": {
          "index": 1
        },
        "metallicFactor": 0.0,
        "metallicRoughnessTexture": {
          "index": 2
        }
      }
    }
  ],
  "meshes": [
    {
      "name": "Object_0",
      "primitives": [
        {
          "attributes": {
            "NORMAL": 1,
            "POSITION": 0,
            "TEXCOORD_0": 2
          },
          "indices": 3,
          "material": 2,
          "mode": 4
        }
      ]
    },
    {
      "name": "Object_1",
      "primitives": [
        {
          "attributes": {
            "NORMAL": 5,
            "POSITION": 4,
            "TEXCOORD_0": 6
          },
          "indices": 7,
          "material": 0,
          "mode": 4
        }
      ]
    },
    {
      "name": "Object_2",
      "primitives": [
        {
          "attributes": {
            "NORMAL": 9,
            "POSITION": 8,
            "TEXCOORD_0": 10
          },
          "indices": 11,
          "material": 3,
          "mode": 4
        }
      ]
    },
    {
      "name": "Object_3",
      "primitives": [
        {
          "attributes": {
            "NORMAL": 13,
            "POSITION": 12,
            "TEXCOORD_0": 14
          },
          "indices": 15,
          "material": 1,
          "mode": 4
        }
      ]
    },
    {
      "name": "Object_4",
      "primitives": [
        {
          "attributes": {
            "NORMAL": 17,
            "POSITION": 16,
            "TEXCOORD_0": 18
          },
          "indices": 19,
          "material": 4,
          "mode": 4
        }
      ]
    }
  ],
  "nodes": [
    {
      "children": [
        1
      ],
      "matrix": [
        1.0,
        0.0,
        0.0,
        0.0,
        0.0,
        2.220446049250313e-16,
        -1.0,
        0.0,
        0.0,
        1.0,
        2.220446049250313e-16,
        0.0,
        0.0,
        0.0,
        0.0,
        1.0
      ],
      "name": "Sketchfab_model"
    },
    {
      "children": [
        2,
        3,
        4,
        5,
        6
      ],
      "name": "botella  whisky.obj.cleaner.materialmerger.gles"
    },
    {
      "mesh": 0,
      "name": "Object_2"
    },
    {
      "mesh": 1,
      "name": "Object_3"
    },
    {
      "mesh": 2,
      "name": "Object_4"
    },
    {
      "mesh": 3,
      "name": "Object_5"
    },
    {
      "mesh": 4,
      "name": "Object_6"
    }
  ],
  "samplers": [
    {
      "magFilter": 9729,
      "minFilter": 9987,
      "wrapS": 10497,
      "wrapT": 10497
    }
  ],
  "scene": 0,
  "scenes": [
    {
      "name": "Sketchfab_Scene",
      "nodes": [
        0
      ]
    }
  ],
  "textures": [
    {
      "sampler": 0,
      "source": 0
    },
    {
      "sampler": 0,
      "source": 1
    },
    {
      "sampler": 0,
      "source": 2
    }
  ]
}
